<svg width="268" height="242" viewBox="0 0 268 242" fill="none" xmlns="http://www.w3.org/2000/svg">
<mask id="mask0_297_125" style="mask-type:luminance" maskUnits="userSpaceOnUse" x="0" y="0" width="268" height="242">
<path d="M0 0H268V241.333H0V0Z" fill="white"/>
</mask>
<g mask="url(#mask0_297_125)">
<mask id="mask1_297_125" style="mask-type:luminance" maskUnits="userSpaceOnUse" x="-25" y="-16" width="314" height="272">
<path d="M-24.2031 33.5472L248.354 -15.8643L288.667 206.511L16.1094 255.922L-24.2031 33.5472Z" fill="white"/>
</mask>
<g mask="url(#mask1_297_125)">
<mask id="mask2_297_125" style="mask-type:luminance" maskUnits="userSpaceOnUse" x="-25" y="-16" width="314" height="272">
<path d="M-24.2031 33.5472L248.354 -15.8643L288.667 206.511L16.1094 255.922L-24.2031 33.5472Z" fill="white"/>
</mask>
<g mask="url(#mask2_297_125)">
<path d="M213.844 151.854C211.859 152.198 210.042 152.656 208.172 152.781C207.594 152.823 207.015 152.844 206.443 152.943C204.364 153.313 202.292 153.698 200.213 154.052C196.5 154.682 192.776 155.255 189.052 155.75C180.463 156.886 172.026 158.896 163.458 160.13C153.239 161.604 143.094 163.474 132.984 165.516C123.047 167.526 113.068 169.302 103.083 171.063C99.2551 171.74 95.4009 172.386 91.5363 172.875C89.4009 173.146 87.2863 173.479 85.1665 173.844C84.4946 173.959 84.1561 173.75 83.7551 173.182C79.2811 166.906 75.2655 160.333 71.1613 153.818C68.9426 150.297 66.9165 146.656 64.854 143.042C62.9634 139.735 60.8957 136.542 58.8957 133.307C57.0884 130.375 55.2707 127.443 53.4217 124.531C52.6092 123.25 51.7186 122.011 50.8488 120.761C50.1665 119.776 50.1561 119.708 50.953 118.833C54.0728 115.443 57.1821 112.042 60.3124 108.662C69.4634 98.7866 78.6457 88.9429 87.7707 79.0418C91.953 74.5054 96.0311 69.87 100.161 65.2866C103.427 61.6668 106.708 58.0627 109.958 54.4325C114.854 48.9689 119.864 43.6095 125 38.37C131.213 32.0314 137.64 25.9324 144.292 20.0679C144.427 19.9481 144.573 19.8387 144.713 19.7293C145.135 19.4012 145.406 19.4949 145.651 19.9741C146.515 21.646 147.406 23.3022 148.281 24.9637C149.828 27.896 151.364 30.8283 152.906 33.7554C156.948 41.4325 161.14 49.0314 164.698 56.9637C166.797 61.6564 169.161 66.2293 171.515 70.8022C174.281 76.1668 177.042 81.5418 179.734 86.9429C181.849 91.1877 184.161 95.3387 186.396 99.5262C189.005 104.422 191.635 109.313 194.234 114.214C196.437 118.365 198.672 122.5 200.786 126.698C204.286 133.651 207.854 140.573 211.562 147.422C212.323 148.828 213.026 150.266 213.844 151.854ZM100.885 239.823C103.792 237.766 106.229 235.203 108.75 232.719C113.349 228.203 117.974 223.714 122.599 219.229C123.057 218.787 123.427 218.292 123.807 217.787C124.208 217.25 124.104 216.776 123.667 216.354C123.349 216.042 122.989 215.766 122.614 215.521C121.01 214.464 119.323 213.511 117.792 212.349C114.979 210.209 112.323 207.87 109.484 205.771C106.932 203.875 104.479 201.828 101.755 200.172C99.8436 199.005 97.9738 197.766 96.1509 196.464C90.8592 192.688 85.3228 189.266 79.9999 185.531C79.9269 185.479 79.8488 185.427 79.7759 185.38C78.3019 184.459 78.3019 184.459 76.953 185.479C76.6301 185.724 76.3071 185.964 75.9946 186.219C71.8332 189.688 67.9009 193.422 63.6665 196.807C62.9582 197.375 62.9321 197.485 63.4478 198.235C64.8749 200.297 66.2759 202.38 67.7811 204.386C72.6717 210.922 77.5103 217.495 82.5103 223.948C85.8071 228.198 89.1717 232.391 92.5207 236.599C93.4686 237.781 94.4009 238.985 95.4634 240.089C96.3019 240.953 97.1821 241.339 98.3176 240.974C99.328 240.886 100.109 240.375 100.885 239.823ZM38.6561 193.495C37.2603 191.412 35.828 189.354 34.4686 187.245C31.7655 183.031 29.1405 178.761 26.4061 174.557C22.9686 169.266 19.729 163.849 16.6092 158.365C14.5519 154.75 12.4269 151.172 10.3019 147.594C9.85402 146.839 9.79152 146.828 9.13527 147.438C7.25506 149.177 5.69777 151.167 4.33319 153.339C2.02589 157.005 0.968601 161 0.807144 165.292C0.702977 168.057 1.28631 170.719 1.73423 173.406C2.11964 175.682 2.95298 177.813 3.94256 179.854C6.81756 185.781 11.1249 190.495 16.4582 194.328C19.8436 196.761 23.6665 197.438 27.6769 197.073C31.0728 196.761 34.354 195.766 37.6665 195C38.1717 194.88 38.6301 194.589 39.078 194.386C39.0936 193.953 38.828 193.745 38.6561 193.495ZM217.677 90.297C218.614 86.7033 218.786 83.0627 218.219 79.4064C217.927 77.5522 217.557 75.7189 217.036 73.9012C216.448 71.8283 215.708 69.8283 214.885 67.8595C213.573 64.7085 211.422 62.1304 209.114 59.6825C206.765 57.1877 204.047 55.2033 201.125 53.4064C197.114 50.9429 192.797 49.5262 188.187 48.8491C187.213 48.7085 186.229 48.5939 185.271 48.9429C185.401 49.2293 185.526 49.5158 185.667 49.797C187.885 54.1929 190.114 58.5887 192.328 62.9897C194.797 67.9116 197.271 72.8335 199.708 77.7762C202.344 83.1147 204.932 88.4793 207.552 93.8283C209.047 96.8804 210.328 100.037 212.015 103C214.495 99.0262 216.489 94.8491 217.677 90.297ZM212.015 103C212.989 105.511 214.286 107.87 215.359 110.339C218.015 116.417 220.651 122.5 223.333 128.568C225.542 133.568 227.823 138.537 229.739 143.656C230.625 146.016 231.297 148.432 231.745 150.912C231.911 151.823 231.656 152.505 230.911 153.011C228.823 154.427 226.495 155.38 224.208 156.401C223.734 156.61 223.568 156.292 223.385 155.964C222.562 154.474 221.729 152.985 220.911 151.49C214.719 140.162 208.76 128.703 202.864 117.214C197.849 107.443 192.573 97.8022 187.39 88.1147C183.687 81.1981 180.255 74.1408 176.64 67.1772C173.578 61.2918 170.562 55.3804 167.792 49.3491C164.651 42.5002 161.182 35.8179 157.578 29.1981C153.573 21.8335 149.75 14.3699 145.984 6.87516C145.422 5.76057 145.401 5.7137 146.463 5.10432C149.151 3.56786 151.864 2.0887 154.833 1.15641C155.302 1.00536 155.792 0.901199 156.281 0.843907C157.422 0.698075 158.354 0.989741 159.099 1.98453C160.239 3.49495 161.229 5.09912 162.109 6.75536C164.75 11.7033 167.734 16.4533 170.479 21.3387C173.552 26.8127 176.432 32.3908 179.255 37.995C181.13 41.7137 183.172 45.3439 185.271 48.9429C185.401 49.2293 185.526 49.5158 185.667 49.797C187.885 54.1929 190.114 58.5887 192.328 62.9897C194.797 67.9116 197.271 72.8335 199.708 77.7762C202.344 83.1147 204.932 88.4793 207.552 93.8283C209.047 96.8804 210.328 100.037 212.015 103ZM54.0624 194.787C55.9269 193.698 57.5936 192.323 59.328 191.052C64.6769 187.12 69.7186 182.787 75.1353 178.938C75.6457 178.578 76.1196 178.156 76.5624 177.714C77.7707 176.526 77.8332 175.959 76.8853 174.557C73.4999 169.589 70.2759 164.516 67.1092 159.406C61.6301 150.563 56.5832 141.458 51.0103 132.667C48.9426 129.401 46.6613 126.292 44.3436 123.208C43.1092 121.563 42.6144 121.568 41.078 122.865C40.0155 123.766 38.9426 124.646 37.8592 125.516C32.5988 129.724 26.9321 133.365 21.4061 137.198C19.8228 138.302 18.229 139.386 16.6874 140.542C15.6353 141.328 15.5832 141.677 16.1769 142.813C16.6978 143.807 17.3176 144.745 17.8436 145.735C21.3957 152.386 25.3749 158.781 29.2863 165.219C34.7134 174.156 40.3853 182.927 46.2134 191.604C47.1196 192.948 48.1405 194.198 49.453 195.182C50.1717 195.719 50.953 195.974 51.8592 195.75C52.6509 195.573 53.3644 195.193 54.0624 194.787ZM224.234 5.55224C223.396 5.16682 223.37 5.18245 222.901 6.0262C221.901 7.83349 220.984 9.68245 220.286 11.6252C218.182 17.4481 216.104 23.2762 214.036 29.1043C213.51 30.5835 213.021 32.0783 212.557 33.5783C212.281 34.4585 212.328 34.5158 213.161 34.896C213.776 35.172 214.396 35.4272 215.026 35.672C216.151 36.1095 216.271 36.0783 216.781 35.0106C217.838 32.7814 218.901 30.5522 219.906 28.3022C221.771 24.1252 223.729 19.9949 225.948 15.9897C227.338 13.4845 228.594 10.9064 229.969 8.25016C227.958 7.30224 226.104 6.41682 224.234 5.55224ZM265.969 88.8387C264.76 88.7449 263.552 88.672 262.349 88.5835C257.568 88.2449 252.781 87.9741 248.01 87.5418C244.932 87.2606 241.854 86.9897 238.765 86.8908C236.724 86.8283 236.719 86.8699 236.562 88.922C236.422 90.7085 236.417 90.7397 238.146 91.0679C240.963 91.5991 243.807 92.0106 246.609 92.5991C252.75 93.9012 258.906 95.0991 265.109 96.0366C266.328 96.2189 266.448 96.1668 266.594 94.9637C266.755 93.6772 266.807 92.3752 266.906 91.0835C266.937 90.6356 266.963 90.1929 266.995 89.7449C266.906 89.1304 266.51 88.8856 265.969 88.8387ZM257.458 42.3439C257.047 41.245 256.844 41.2033 255.781 41.8179C254.307 42.6668 252.844 43.5366 251.359 44.3752C245.932 47.4272 240.5 50.4689 235.068 53.5262C233.505 54.4012 231.958 55.3075 230.396 56.1877C229.948 56.4377 229.724 56.6772 230.026 57.2397C230.489 58.1095 230.849 59.0314 231.26 59.9272C231.411 60.2554 231.63 60.3908 232.01 60.2293C232.797 59.896 233.599 59.6147 234.38 59.2814C239.047 57.3075 243.505 54.9012 248.057 52.6877C251.318 51.1043 254.604 49.5679 257.88 48.0054C259 47.4689 259.031 47.4012 258.781 46.1668C258.396 45.047 257.963 43.6825 257.458 42.3439Z" fill="#4D8597"/>
</g>
</g>
</g>
<mask id="mask3_297_125" style="mask-type:luminance" maskUnits="userSpaceOnUse" x="0" y="18" width="219" height="224">
<path d="M0 18.667H218.667V241.334H0V18.667Z" fill="white"/>
</mask>
<g mask="url(#mask3_297_125)">
<mask id="mask4_297_125" style="mask-type:luminance" maskUnits="userSpaceOnUse" x="-25" y="-16" width="314" height="272">
<path d="M-24.2031 33.5472L248.354 -15.8643L288.667 206.511L16.1094 255.922L-24.2031 33.5472Z" fill="white"/>
</mask>
<g mask="url(#mask4_297_125)">
<mask id="mask5_297_125" style="mask-type:luminance" maskUnits="userSpaceOnUse" x="-25" y="-16" width="314" height="272">
<path d="M-24.2031 33.5472L248.354 -15.8643L288.667 206.511L16.1094 255.922L-24.2031 33.5472Z" fill="white"/>
</mask>
<g mask="url(#mask5_297_125)">
<path d="M213.844 151.855C211.859 152.198 210.042 152.657 208.172 152.782C207.594 152.823 207.015 152.844 206.443 152.943C204.364 153.313 202.292 153.698 200.213 154.053C196.5 154.683 192.776 155.256 189.052 155.751C180.463 156.886 172.026 158.896 163.458 160.131C153.239 161.605 143.094 163.475 132.984 165.516C123.047 167.527 113.068 169.303 103.083 171.063C99.2551 171.74 95.4009 172.386 91.5363 172.876C89.4009 173.146 87.2863 173.48 85.1665 173.844C84.4946 173.959 84.1561 173.751 83.7551 173.183C79.2811 166.907 75.2655 160.334 71.1613 153.818C68.9426 150.297 66.9165 146.657 64.854 143.042C62.9634 139.735 60.8957 136.542 58.8957 133.308C57.0884 130.376 55.2707 127.443 53.4217 124.532C52.6092 123.251 51.7186 122.011 50.8488 120.761C50.1665 119.777 50.1561 119.709 50.953 118.834C54.0728 115.443 57.1821 112.042 60.3124 108.662C69.4634 98.787 78.6457 88.9433 87.7707 79.0422C91.953 74.5058 96.0311 69.8704 100.161 65.287C103.427 61.6672 106.708 58.0631 109.958 54.4329C114.854 48.9693 119.864 43.6099 125 38.3704C131.213 32.0318 137.64 25.9329 144.292 20.0683C144.427 19.9485 144.573 19.8391 144.713 19.7297C145.135 19.4016 145.406 19.4954 145.651 19.9745C146.515 21.6464 147.406 23.3027 148.281 24.9641C149.828 27.8964 151.364 30.8287 152.906 33.7558C156.948 41.4329 161.14 49.0318 164.698 56.9641C166.797 61.6568 169.161 66.2297 171.515 70.8027C174.281 76.1672 177.042 81.5422 179.734 86.9433C181.849 91.1881 184.161 95.3391 186.396 99.5266C189.005 104.422 191.635 109.313 194.234 114.214C196.437 118.365 198.672 122.501 200.786 126.698C204.286 133.652 207.854 140.573 211.562 147.422C212.323 148.829 213.026 150.266 213.844 151.855ZM100.885 239.823C103.792 237.766 106.229 235.204 108.75 232.719C113.349 228.204 117.974 223.714 122.599 219.23C123.057 218.787 123.427 218.292 123.807 217.787C124.208 217.251 124.104 216.777 123.667 216.355C123.349 216.042 122.989 215.766 122.614 215.521C121.01 214.464 119.323 213.511 117.792 212.35C114.979 210.209 112.323 207.87 109.484 205.771C106.932 203.876 104.479 201.829 101.755 200.172C99.8436 199.006 97.9738 197.766 96.1509 196.464C90.8592 192.688 85.3228 189.266 79.9999 185.532C79.9269 185.48 79.8488 185.428 79.7759 185.381C78.3019 184.459 78.3019 184.459 76.953 185.48C76.6301 185.725 76.3071 185.964 75.9946 186.219C71.8332 189.688 67.9009 193.422 63.6665 196.808C62.9582 197.376 62.9321 197.485 63.4478 198.235C64.8749 200.297 66.2759 202.381 67.7811 204.386C72.6717 210.922 77.5103 217.495 82.5103 223.948C85.8071 228.198 89.1717 232.391 92.5207 236.6C93.4686 237.782 94.4009 238.985 95.4634 240.089C96.3019 240.954 97.1821 241.339 98.3176 240.975C99.328 240.886 100.109 240.376 100.885 239.823ZM38.6561 193.495C37.2603 191.412 35.828 189.355 34.4686 187.245C31.7655 183.032 29.1405 178.761 26.4061 174.558C22.9686 169.266 19.729 163.85 16.6092 158.365C14.5519 154.751 12.4269 151.172 10.3019 147.594C9.85402 146.839 9.79152 146.829 9.13527 147.438C7.25506 149.178 5.69777 151.167 4.33319 153.339C2.02589 157.006 0.968601 161.001 0.807144 165.292C0.702977 168.058 1.28631 170.719 1.73423 173.407C2.11964 175.683 2.95298 177.813 3.94256 179.855C6.81756 185.782 11.1249 190.495 16.4582 194.329C19.8436 196.761 23.6665 197.438 27.6769 197.073C31.0728 196.761 34.354 195.766 37.6665 195.001C38.1717 194.881 38.6301 194.589 39.078 194.386C39.0936 193.954 38.828 193.745 38.6561 193.495ZM217.677 90.2975C218.614 86.7037 218.786 83.0631 218.219 79.4068C217.927 77.5527 217.557 75.7193 217.036 73.9016C216.448 71.8287 215.708 69.8287 214.885 67.86C213.573 64.7089 211.422 62.1308 209.114 59.6829C206.765 57.1881 204.047 55.2037 201.125 53.4068C197.114 50.9433 192.797 49.5266 188.187 48.8495C187.213 48.7089 186.229 48.5943 185.271 48.9433C185.401 49.2297 185.526 49.5162 185.667 49.7974C187.885 54.1933 190.114 58.5891 192.328 62.9902C194.797 67.912 197.271 72.8339 199.708 77.7766C202.344 83.1152 204.932 88.4797 207.552 93.8287C209.047 96.8808 210.328 100.037 212.015 103.001C214.495 99.0266 216.489 94.8495 217.677 90.2975Z" fill="#4D8597"/>
</g>
</g>
</g>
<mask id="mask6_297_125" style="mask-type:luminance" maskUnits="userSpaceOnUse" x="14" y="0" width="254" height="196">
<path d="M14.666 0H267.999V196H14.666V0Z" fill="white"/>
</mask>
<g mask="url(#mask6_297_125)">
<mask id="mask7_297_125" style="mask-type:luminance" maskUnits="userSpaceOnUse" x="-25" y="-16" width="314" height="272">
<path d="M-24.2031 33.5472L248.354 -15.8643L288.667 206.511L16.1094 255.922L-24.2031 33.5472Z" fill="white"/>
</mask>
<g mask="url(#mask7_297_125)">
<mask id="mask8_297_125" style="mask-type:luminance" maskUnits="userSpaceOnUse" x="-25" y="-16" width="314" height="272">
<path d="M-24.2031 33.5472L248.354 -15.8643L288.667 206.511L16.1094 255.922L-24.2031 33.5472Z" fill="white"/>
</mask>
<g mask="url(#mask8_297_125)">
<path d="M212.016 103C212.99 105.511 214.286 107.87 215.359 110.339C218.016 116.417 220.651 122.5 223.333 128.568C225.542 133.568 227.823 138.537 229.74 143.656C230.625 146.016 231.297 148.432 231.745 150.912C231.911 151.823 231.656 152.505 230.911 153.011C228.823 154.427 226.495 155.38 224.208 156.401C223.734 156.61 223.568 156.292 223.385 155.964C222.563 154.474 221.729 152.985 220.911 151.49C214.719 140.162 208.76 128.703 202.865 117.214C197.849 107.443 192.573 97.8022 187.391 88.1147C183.688 81.1981 180.255 74.1408 176.641 67.1772C173.578 61.2918 170.563 55.3804 167.792 49.3491C164.651 42.5002 161.182 35.8179 157.578 29.1981C153.573 21.8335 149.75 14.3699 145.984 6.87516C145.422 5.76057 145.401 5.7137 146.464 5.10432C149.151 3.56786 151.865 2.0887 154.833 1.15641C155.302 1.00536 155.792 0.901199 156.281 0.843907C157.422 0.698075 158.354 0.989741 159.099 1.98453C160.24 3.49495 161.229 5.09912 162.109 6.75536C164.75 11.7033 167.734 16.4533 170.479 21.3387C173.552 26.8127 176.432 32.3908 179.255 37.995C181.13 41.7137 183.172 45.3439 185.271 48.9429C185.401 49.2293 185.526 49.5158 185.667 49.797C187.885 54.1929 190.115 58.5887 192.328 62.9897C194.797 67.9116 197.271 72.8335 199.708 77.7762C202.344 83.1147 204.932 88.4793 207.552 93.8283C209.047 96.8804 210.328 100.037 212.016 103ZM54.0625 194.787C55.9271 193.698 57.5938 192.323 59.3281 191.052C64.6771 187.12 69.7188 182.787 75.1354 178.938C75.6459 178.578 76.1198 178.156 76.5625 177.714C77.7709 176.526 77.8334 175.959 76.8854 174.557C73.5 169.589 70.2761 164.516 67.1094 159.406C61.6302 150.563 56.5834 141.458 51.0104 132.667C48.9427 129.401 46.6615 126.292 44.3438 123.208C43.1094 121.563 42.6146 121.568 41.0781 122.865C40.0156 123.766 38.9427 124.646 37.8594 125.516C32.599 129.724 26.9323 133.365 21.4063 137.198C19.8229 138.302 18.2292 139.386 16.6875 140.542C15.6354 141.328 15.5834 141.677 16.1771 142.813C16.6979 143.807 17.3177 144.745 17.8438 145.735C21.3959 152.386 25.375 158.781 29.2865 165.219C34.7136 174.156 40.3854 182.927 46.2136 191.604C47.1198 192.948 48.1406 194.198 49.4531 195.182C50.1719 195.719 50.9531 195.974 51.8594 195.75C52.6511 195.573 53.3646 195.193 54.0625 194.787ZM224.234 5.55224C223.396 5.16682 223.37 5.18245 222.901 6.0262C221.901 7.83349 220.984 9.68245 220.286 11.6252C218.182 17.4481 216.104 23.2762 214.036 29.1043C213.51 30.5835 213.021 32.0783 212.557 33.5783C212.281 34.4585 212.328 34.5158 213.161 34.896C213.776 35.172 214.396 35.4272 215.026 35.672C216.151 36.1095 216.271 36.0783 216.781 35.0106C217.839 32.7814 218.901 30.5522 219.906 28.3022C221.771 24.1252 223.729 19.9949 225.948 15.9897C227.339 13.4845 228.594 10.9064 229.969 8.25016C227.958 7.30224 226.104 6.41682 224.234 5.55224ZM265.969 88.8387C264.76 88.7449 263.552 88.672 262.349 88.5835C257.568 88.2449 252.781 87.9741 248.01 87.5418C244.932 87.2606 241.854 86.9897 238.766 86.8908C236.724 86.8283 236.719 86.8699 236.563 88.922C236.422 90.7085 236.417 90.7397 238.146 91.0679C240.964 91.5991 243.807 92.0106 246.609 92.5991C252.75 93.9012 258.906 95.0991 265.109 96.0366C266.328 96.2189 266.448 96.1668 266.594 94.9637C266.755 93.6772 266.807 92.3752 266.906 91.0835C266.938 90.6356 266.964 90.1929 266.995 89.7449C266.906 89.1304 266.51 88.8856 265.969 88.8387ZM257.458 42.3439C257.047 41.245 256.844 41.2033 255.781 41.8179C254.307 42.6668 252.844 43.5366 251.359 44.3752C245.932 47.4272 240.5 50.4689 235.068 53.5262C233.505 54.4012 231.958 55.3075 230.396 56.1877C229.948 56.4377 229.724 56.6772 230.026 57.2397C230.49 58.1095 230.849 59.0314 231.26 59.9272C231.411 60.2554 231.63 60.3908 232.01 60.2293C232.797 59.896 233.599 59.6147 234.38 59.2814C239.047 57.3075 243.505 54.9012 248.057 52.6877C251.318 51.1043 254.604 49.5679 257.88 48.0054C259 47.4689 259.031 47.4012 258.781 46.1668C258.396 45.047 257.964 43.6825 257.458 42.3439Z" fill="#F0C95A"/>
</g>
</g>
</g>
</svg>
